<svg width="883" height="775" viewBox="0 0 883 775" fill="none" xmlns="http://www.w3.org/2000/svg">
<path d="M56.9442 651.878H38.0967" stroke="#263238" stroke-width="1.1133" stroke-miterlimit="10"/>
<path d="M820.372 651.878H86.7549" stroke="#263238" stroke-width="1.1133" stroke-miterlimit="10"/>
<path d="M544.352 729.577C578.811 729.577 606.746 721.999 606.746 712.652C606.746 703.305 578.811 695.728 544.352 695.728C509.893 695.728 481.958 703.305 481.958 712.652C481.958 721.999 509.893 729.577 544.352 729.577Z" fill="#263238"/>
<path d="M221.87 751.097C156.93 751.097 147.342 741.845 146.398 734.375C146.183 732.819 146.339 731.235 146.852 729.749C147.365 728.263 148.222 726.915 149.354 725.811C166.847 707.712 267.654 715.365 407.143 725.953C426.606 727.431 446.727 728.949 467.36 730.467C608.306 740.792 665.054 739.456 676.777 725.487C679.159 722.633 679.652 719.07 678.338 714.251C672.753 694.108 598.102 694.007 569.831 695.586C569.184 695.619 568.55 695.4 568.066 694.976C567.582 694.551 567.286 693.956 567.244 693.319C567.225 693.003 567.269 692.687 567.374 692.389C567.48 692.09 567.644 691.815 567.858 691.58C568.072 691.344 568.331 691.153 568.62 691.017C568.91 690.881 569.223 690.803 569.544 690.788C580.363 690.16 675.422 685.443 683.039 713.057C684.785 719.414 683.984 724.495 680.535 728.625C667.374 744.375 613.501 746.056 467.011 735.326C446.357 733.808 426.237 732.289 406.773 730.812C273.814 720.689 168.777 712.733 152.886 729.192C152.257 729.78 151.78 730.507 151.495 731.314C151.209 732.12 151.123 732.982 151.243 733.828C151.838 738.606 163.562 749.295 258.005 745.57C310.831 743.545 363.904 737.816 364.438 737.756C365.056 737.731 365.661 737.938 366.13 738.336C366.599 738.734 366.897 739.292 366.965 739.899C367.033 740.505 366.865 741.114 366.495 741.603C366.125 742.092 365.581 742.425 364.972 742.533C364.438 742.533 311.201 748.283 258.21 750.368C244.577 750.854 232.505 751.097 221.87 751.097Z" fill="white" stroke="#263238" stroke-width="1.1133" stroke-miterlimit="10"/>
<path d="M521.151 727.512C561.756 727.512 594.673 695.054 594.673 655.016C594.673 614.977 561.756 582.52 521.151 582.52C480.546 582.52 447.629 614.977 447.629 655.016C447.629 695.054 480.546 727.512 521.151 727.512Z" fill="white"/>
<path d="M521.152 727.512C534.531 727.52 547.659 723.928 559.121 717.121C570.582 710.314 579.942 700.552 586.191 688.887C592.44 677.221 595.341 664.095 594.582 650.923C593.823 637.752 589.432 625.034 581.883 614.142C581.082 645.724 563.405 692.347 471.466 708.381C485 720.689 502.74 727.52 521.152 727.512V727.512Z" fill="#92E3A9"/>
<path opacity="0.3" d="M521.152 727.512C534.531 727.52 547.659 723.928 559.121 717.121C570.582 710.314 579.942 700.552 586.191 688.887C592.44 677.221 595.341 664.095 594.582 650.923C593.823 637.752 589.432 625.034 581.883 614.142C581.082 645.724 563.405 692.347 471.466 708.381C485 720.689 502.74 727.52 521.152 727.512V727.512Z" fill="white"/>
<path d="M557.327 683.439C544.217 670.862 528.296 661.494 510.845 656.089C528.296 661.494 544.217 670.862 557.327 683.439H561.228C569.881 674.98 577.333 665.405 583.381 654.975C548.951 619.102 515.465 622.766 515.465 622.766C515.465 622.766 549.053 619.102 583.484 655.016C585.373 651.675 586.954 648.538 588.247 645.643C573.917 625.843 549.238 612.34 535.996 610.316L532.916 609.587C528.17 608.736 523.313 608.668 518.544 609.384C523.313 608.668 528.17 608.736 532.916 609.587L541.683 585.293C537.54 584.126 533.301 583.32 529.015 582.884C523.328 591.934 508.689 620.843 508.689 678.196C508.689 620.843 523.328 591.934 529.015 582.884C526.551 582.662 524.088 582.52 521.562 582.52C518.784 582.528 516.007 582.69 513.247 583.006C504.583 595.922 488.014 626.43 486.906 672.224C504.09 678.398 527.085 683.014 557.327 683.439ZM573.937 668.681C544.66 640.541 512.344 639.063 512.344 639.063C512.344 639.063 544.66 640.541 573.937 668.681V668.681Z" stroke="#263238" stroke-width="1.1133" stroke-linecap="round" stroke-linejoin="round"/>
<path d="M486.823 672.345C487.932 626.552 504.501 596.043 513.165 583.127C506.386 583.877 499.745 585.553 493.434 588.107C477.874 610.616 469.084 637.004 468.079 664.227C474.108 667.401 480.374 670.115 486.823 672.345Z" stroke="#263238" stroke-width="1.1133" stroke-linecap="round" stroke-linejoin="round"/>
<path d="M493.435 588.047C480.738 593.208 469.758 601.767 461.733 612.756C453.708 623.745 448.958 636.728 448.02 650.238C454.065 655.719 460.808 660.401 468.079 664.166C469.085 636.944 477.875 610.556 493.435 588.047V588.047Z" stroke="#263238" stroke-width="1.1133" stroke-linecap="round" stroke-linejoin="round"/>
<path d="M588.144 645.643C589.744 642.156 591.116 638.572 592.25 634.913C589.181 624.588 583.831 615.061 576.585 607.016L570.898 625.722L576.483 607.016C571.948 602 566.732 597.626 560.982 594.019L554.72 617.118L561.023 594.12C555.011 590.329 548.467 587.43 541.6 585.516L532.833 609.81C546.261 611.713 567.018 619.507 588.144 645.643Z" stroke="#263238" stroke-width="1.1133" stroke-linecap="round" stroke-linejoin="round"/>
<path d="M595.063 658.437C595.063 657.384 595.063 656.413 595.063 655.279C595.063 648.386 594.068 641.529 592.107 634.913C590.972 638.572 589.601 642.156 588.001 645.643C587.12 647.782 586.077 649.853 584.88 651.837C585.003 651.959 583.114 654.894 583.237 655.016C583.361 655.137 581.184 658.66 581.184 658.538C576.298 667.102 561.557 683.5 561.803 683.5C561.557 683.5 553.837 690.403 549.628 693.885C541.93 700.173 533.77 705.891 525.217 710.992H525.75H525.217C516.805 716.005 508.105 720.534 499.163 724.556C506.344 726.784 513.828 727.917 521.357 727.917C522.609 727.917 523.841 727.917 525.052 727.917C540.102 719.839 564.02 701.416 595.063 658.437Z" stroke="#263238" stroke-width="1.1133" stroke-linecap="round" stroke-linejoin="round"/>
<path d="M595.064 658.437C564.021 701.416 540.102 719.839 525.176 727.734C543.48 726.826 560.783 719.222 573.706 706.408C586.629 693.594 594.244 676.49 595.064 658.437V658.437Z" stroke="#263238" stroke-width="1.1133" stroke-linecap="round" stroke-linejoin="round"/>
<path d="M463.911 700.546C473.021 711.838 485.337 720.197 499.286 724.556C508.229 720.534 516.928 716.005 525.34 710.992C507.807 714.191 480.377 706.255 463.911 700.546Z" stroke="#263238" stroke-width="1.1133" stroke-linecap="round" stroke-linejoin="round"/>
<path d="M525.34 710.992C533.894 705.891 542.053 700.173 549.752 693.885C496.802 699.23 464.137 683.055 450.258 673.864C452.877 683.597 457.527 692.685 463.911 700.546C480.377 706.255 507.806 714.191 525.34 710.992Z" stroke="#263238" stroke-width="1.1133" stroke-linecap="round" stroke-linejoin="round"/>
<path d="M549.751 693.885C553.96 690.403 557.758 686.921 561.228 683.48H557.327C557.615 683.743 557.902 684.006 558.169 684.289C557.902 684.006 557.615 683.743 557.327 683.48C527.085 683.055 504.09 678.439 486.824 672.386C461.591 663.761 452.496 654.489 448.02 650.339C447.897 651.999 447.814 653.639 447.814 655.319C447.817 661.592 448.638 667.838 450.258 673.904C464.137 683.055 496.802 699.23 549.751 693.885Z" stroke="#263238" stroke-width="1.1133" stroke-linecap="round" stroke-linejoin="round"/>
<path d="M521.151 727.512C561.756 727.512 594.673 695.054 594.673 655.016C594.673 614.977 561.756 582.52 521.151 582.52C480.546 582.52 447.629 614.977 447.629 655.016C447.629 695.054 480.546 727.512 521.151 727.512Z" stroke="#263238" stroke-width="1.1133" stroke-linecap="round" stroke-linejoin="round"/>
<path d="M656.574 531.119C656.574 531.119 651.544 515.024 636.885 509.234C626.619 505.186 614.978 506.279 604.405 508.081C584.736 511.461 567.572 519.175 548.971 525.754C548.971 525.754 556.937 522.859 589.602 538.569C601.633 544.339 615.389 548.833 629.145 548.529C640.17 548.286 657.128 545.169 656.574 531.119Z" fill="#92E3A9"/>
<path d="M658.34 483.807C658.34 483.807 658.34 466.943 646.021 457.246C637.439 450.485 625.901 448.156 615.225 446.881C595.392 444.512 576.708 447.003 556.917 447.995C556.917 447.995 565.396 447.509 592.066 471.843C601.9 480.791 613.767 489.01 626.969 492.634C637.604 495.549 654.727 497.412 658.34 483.807Z" fill="#92E3A9"/>
<path d="M692.032 546.383C692.032 546.383 678.707 535.836 678.666 520.268C678.666 509.437 683.943 499.092 689.548 490.083C699.977 473.28 713.569 460.404 726.668 445.727C726.668 445.727 721.001 451.962 723.752 487.694C724.779 500.853 723.917 515.126 718.558 527.617C714.349 537.658 705.172 552.052 692.032 546.383Z" fill="#92E3A9"/>
<path d="M739.253 572.256C739.253 572.256 737.364 555.514 748.492 544.46C756.212 536.787 767.401 533.143 777.811 530.673C797.233 526.058 816.08 526.402 835.852 525.126C835.852 525.126 827.393 525.592 803.741 552.801C795.036 562.923 784.216 572.337 771.466 577.459C761.304 581.568 744.509 585.354 739.253 572.256Z" fill="#92E3A9"/>
<path d="M736.235 512.555C736.235 512.555 719.297 510.267 711.166 496.926C705.5 487.654 704.658 476.074 704.761 465.506C704.966 445.828 709.935 427.871 713.528 408.659C713.528 408.659 711.906 416.879 732.888 446.132C740.608 456.922 747.26 469.596 749.313 483.038C750.771 493.828 750.381 510.814 736.235 512.555Z" fill="#92E3A9"/>
<path d="M784.976 482.572C784.976 482.572 797.151 494.395 812.836 492.695C823.738 491.46 833.552 485.042 841.97 478.523C857.656 466.377 869.05 451.517 882.293 437.002C882.293 437.002 876.688 443.257 840.369 444.735C827.003 445.282 812.734 447.772 800.764 454.493C791.155 459.797 777.749 470.466 784.976 482.572Z" fill="#92E3A9"/>
<path d="M770.871 470.891C770.871 470.891 787.87 472.571 798.957 461.498C806.677 453.784 810.249 442.731 812.652 432.426C817.127 413.255 816.594 394.65 817.661 375.154C817.661 375.154 817.292 383.495 789.924 407.1C779.863 415.785 770.316 426.555 765.286 439.168C761.201 449.31 757.526 465.911 770.871 470.891Z" fill="#92E3A9"/>
<path d="M710.16 634.083L680.801 562.842L646.945 480.467" stroke="#263238" stroke-width="1.1133" stroke-linecap="round" stroke-linejoin="round"/>
<path d="M716.936 621.835L746.275 522.778L777.893 461.558" stroke="#263238" stroke-width="1.1133" stroke-linecap="round" stroke-linejoin="round"/>
<path d="M728.208 582.884L757.567 566.183" stroke="#263238" stroke-width="1.1133" stroke-linecap="round" stroke-linejoin="round"/>
<path d="M746.275 522.778L731.595 490.488" stroke="#263238" stroke-width="1.1133" stroke-linecap="round" stroke-linejoin="round"/>
<path d="M764.65 490.65L800.457 474.9" stroke="#263238" stroke-width="1.1133" stroke-linecap="round" stroke-linejoin="round"/>
<path d="M686.447 576.204L698.869 527.232" stroke="#263238" stroke-width="1.1133" stroke-linecap="round" stroke-linejoin="round"/>
<path d="M669.981 538.974L641.299 523.892" stroke="#263238" stroke-width="1.1133" stroke-linecap="round" stroke-linejoin="round"/>
<path d="M725.21 669.693H700.737C696.736 669.692 692.861 668.314 689.781 665.797C686.7 663.28 684.606 659.782 683.86 655.907L675.155 610.7H750.792L742.107 655.907C741.357 659.784 739.259 663.282 736.175 665.799C733.091 668.315 729.213 669.692 725.21 669.693V669.693Z" fill="#263238" stroke="#263238" stroke-width="1.1133" stroke-linecap="round" stroke-linejoin="round"/>
<path d="M36.3926 394.103C36.3926 388.496 39.0206 384.366 44.9335 384.366C50.8465 384.366 53.5771 388.415 53.5771 394.103V413.781C53.5771 419.389 50.9491 423.519 44.9335 423.519C38.9179 423.519 36.3926 419.47 36.3926 413.781V394.103ZM38.959 413.943C38.959 418.134 40.6425 421.211 44.9335 421.211C49.2245 421.211 51.0928 418.134 51.0928 413.943V393.941C51.0928 389.751 49.3682 386.674 44.9335 386.674C40.4988 386.674 38.959 389.751 38.959 393.941V413.943Z" fill="#263238"/>
<path d="M57.6216 394.103C57.6216 388.496 60.2496 384.366 66.1625 384.366C72.0755 384.366 74.8061 388.415 74.8061 394.103V413.781C74.8061 419.389 72.1781 423.519 66.1625 423.519C60.1469 423.519 57.6216 419.47 57.6216 413.781V394.103ZM60.188 413.943C60.188 418.134 61.8715 421.211 66.1625 421.211C70.4535 421.211 72.3218 418.134 72.3218 413.943V393.941C72.3218 389.751 70.5972 386.674 66.1625 386.674C61.7278 386.674 60.188 389.751 60.188 393.941V413.943Z" fill="#263238"/>
<path d="M87.1449 384.69C93.181 384.69 95.5216 388.435 95.5216 394.043V398.233C95.5216 404.307 92.6678 407.343 86.4879 407.343H81.6221V423.195H79.0557V384.73L87.1449 384.69ZM86.4879 405.035C91.0047 405.035 92.9552 403.011 92.9552 398.395V393.881C92.9552 389.71 91.4975 386.998 87.1449 386.998H81.6221V405.035H86.4879Z" fill="#263238"/>
<path d="M115.828 393.982V394.812H113.364V393.82C113.364 389.771 111.804 386.674 107.574 386.674C103.345 386.674 101.764 389.65 101.764 393.698C101.764 403.031 115.869 403.193 115.869 413.822C115.869 419.369 113.425 423.438 107.451 423.438C101.476 423.438 99.0332 419.389 99.0332 413.822V411.797H101.497V413.943C101.497 417.992 103.098 421.029 107.389 421.029C111.68 421.029 113.302 418.053 113.302 413.943C113.302 404.691 99.1975 404.529 99.1975 393.82C99.1975 388.03 101.764 384.305 107.41 384.244C113.056 384.184 115.828 388.435 115.828 393.982Z" fill="#263238"/>
<path d="M122.233 418.356V423.195H119.729V418.356H122.233Z" fill="#263238"/>
<path d="M129.214 418.356V423.195H126.688V418.356H129.214Z" fill="#263238"/>
<path d="M136.173 418.356V423.195H133.586V418.356H136.173Z" fill="#263238"/>
<path d="M44.6459 440.706C50.682 440.706 53.0226 444.431 53.0226 450.039V454.23C53.0226 460.303 50.1688 463.36 43.9889 463.36H39.1436V479.191H36.5566V440.727L44.6459 440.706ZM43.9889 460.951C48.5057 460.951 50.4562 458.927 50.4562 454.291V449.776C50.4562 445.606 48.9985 442.913 44.6459 442.913H39.1436V460.951H43.9889Z" fill="#263238"/>
<path d="M59.8799 470.628L57.9294 479.151H55.5684L64.0888 440.686H67.887L76.5922 479.151H74.0463L71.9932 470.628H59.8799ZM60.27 468.421H71.6442L65.8339 443.561L60.27 468.421Z" fill="#263238"/>
<path d="M97.0826 450.1V452.954H94.5778V449.938C94.5778 445.889 92.9764 442.67 88.6648 442.67C84.3533 442.67 82.7724 445.808 82.7724 449.938V469.96C82.7724 474.009 84.3738 477.147 88.6648 477.147C92.9558 477.147 94.5778 474.07 94.5778 469.96V461.639H89.445V459.332H97.0826V469.778C97.0826 475.345 94.6188 479.515 88.6648 479.515C82.7108 479.515 80.2471 475.345 80.2471 469.778V450.1C80.2471 444.553 82.6903 440.362 88.6648 440.362C94.6394 440.362 97.0826 444.553 97.0826 450.1Z" fill="#263238"/>
<path d="M114.596 458.481V460.789H103.94V476.843H116.772V479.151H101.374V440.686H116.772V442.994H103.94V458.481H114.596Z" fill="#263238"/>
<path d="M131.944 479.191H129.604V440.727H132.95L144.653 473.118V440.727H146.993V479.191H144.16L131.841 444.776L131.944 479.191Z" fill="#263238"/>
<path d="M151.244 450.1C151.244 444.492 153.851 440.362 159.764 440.362C165.677 440.362 168.408 444.411 168.408 450.1V469.778C168.408 475.385 165.8 479.515 159.764 479.515C153.728 479.515 151.244 475.466 151.244 469.778V450.1ZM153.81 469.96C153.81 474.13 155.473 477.207 159.764 477.207C164.055 477.207 165.923 474.13 165.923 469.96V449.938C165.923 445.747 164.199 442.67 159.764 442.67C155.329 442.67 153.81 445.747 153.81 449.938V469.96Z" fill="#263238"/>
<path d="M179.228 479.191V443.014H171.323V440.706H189.801V443.014H181.815V479.191H179.228Z" fill="#263238"/>
<path d="M214.254 459.453V461.761H204.173V479.191H201.606V440.727H216.43V443.035H204.111V459.473L214.254 459.453Z" fill="#263238"/>
<path d="M220.166 450.1C220.166 444.492 222.794 440.362 228.707 440.362C234.62 440.362 237.351 444.411 237.351 450.1V469.778C237.351 475.385 234.723 479.515 228.707 479.515C222.691 479.515 220.166 475.466 220.166 469.778V450.1ZM222.732 469.96C222.732 474.13 224.416 477.207 228.707 477.207C232.998 477.207 234.866 474.13 234.866 469.96V449.938C234.866 445.747 233.142 442.67 228.707 442.67C224.272 442.67 222.732 445.747 222.732 449.938V469.96Z" fill="#263238"/>
<path d="M244.044 469.899C244.044 473.948 245.605 477.207 249.896 477.207C254.187 477.207 255.747 474.029 255.747 469.899V440.706H258.149V469.778C258.149 475.284 255.809 479.515 249.937 479.515C244.065 479.515 241.56 475.284 241.56 469.778V440.706H244.126L244.044 469.899Z" fill="#263238"/>
<path d="M264.986 479.191H262.645V440.727H265.992L277.694 473.118V440.727H280.035V479.191H277.202L264.986 444.776V479.191Z" fill="#263238"/>
<path d="M292.949 440.706C298.985 440.706 301.592 444.593 301.592 450.262V469.616C301.592 475.284 298.985 479.191 292.949 479.191H284.367V440.727L292.949 440.706ZM292.949 476.884C297.301 476.884 299.108 473.968 299.108 469.737V450.161C299.108 445.93 297.281 443.014 292.949 443.014H286.974V476.884H292.949Z" fill="#263238"/>
<path d="M390.533 574.442C344.831 574.442 317.361 534.459 307.608 499.294L307.28 498.059C306.76 496.354 306.595 494.563 306.793 492.794C306.992 491.024 307.55 489.312 308.435 487.76C309.32 486.208 310.514 484.848 311.944 483.762C313.374 482.675 315.012 481.884 316.76 481.436C318.507 480.988 320.328 480.892 322.114 481.153C323.9 481.415 325.614 482.03 327.154 482.96C328.693 483.89 330.027 485.117 331.075 486.567C332.123 488.017 332.863 489.66 333.252 491.399L333.498 492.31C340.91 519.073 361.092 549.663 393.469 547.902C399.558 547.694 405.533 546.225 411.009 543.592C416.484 540.959 421.337 537.219 425.251 532.617C443.011 512.534 450.956 468.867 449.191 446.841C449.024 445.427 449.147 443.995 449.554 442.63C449.961 441.264 450.643 439.994 451.559 438.894C452.475 437.795 453.606 436.888 454.885 436.23C456.164 435.571 457.565 435.173 459.004 435.06C460.442 434.947 461.889 435.121 463.258 435.572C464.627 436.023 465.889 436.741 466.97 437.684C468.051 438.627 468.929 439.775 469.549 441.059C470.17 442.344 470.522 443.739 470.584 445.16C472.637 469.677 469.927 522.373 445.475 550.007C439.216 557.273 431.499 563.183 422.81 567.364C414.121 571.545 404.649 573.907 394.989 574.301C393.49 574.402 391.991 574.442 390.533 574.442Z" fill="white"/>
<path d="M459.026 435.443C456.189 435.67 453.56 436.998 451.716 439.135C449.872 441.272 448.964 444.044 449.191 446.841C450.053 457.59 448.596 473.483 444.818 489.354C450.214 489.129 455.609 489.814 460.771 491.379C459.549 506.61 454.125 521.221 445.085 533.629C425.149 560.939 395.256 569.665 371.994 566.385C361.585 564.927 349.656 559.542 339.617 554.016C353.239 567.115 371.506 574.458 390.534 574.483C391.991 574.483 393.49 574.483 394.989 574.361C404.649 573.968 414.122 571.606 422.811 567.425C431.5 563.244 439.216 557.334 445.475 550.068C469.928 522.434 472.556 469.737 470.585 445.221C470.483 443.828 470.103 442.469 469.466 441.222C468.829 439.975 467.948 438.864 466.873 437.955C465.798 437.046 464.551 436.356 463.204 435.925C461.857 435.493 460.437 435.33 459.026 435.443V435.443Z" fill="#92E3A9"/>
<path opacity="0.5" d="M459.026 435.443C456.189 435.67 453.56 436.998 451.716 439.135C449.872 441.272 448.964 444.044 449.191 446.841C450.053 457.59 448.596 473.483 444.818 489.354C450.214 489.129 455.609 489.814 460.771 491.379C459.549 506.61 454.125 521.221 445.085 533.629C425.149 560.939 395.256 569.665 371.994 566.385C361.585 564.927 349.656 559.542 339.617 554.016C353.239 567.115 371.506 574.458 390.534 574.483C391.991 574.483 393.49 574.483 394.989 574.361C404.649 573.968 414.122 571.606 422.811 567.425C431.5 563.244 439.216 557.334 445.475 550.068C469.928 522.434 472.556 469.737 470.585 445.221C470.483 443.828 470.103 442.469 469.466 441.222C468.829 439.975 467.948 438.864 466.873 437.955C465.798 437.046 464.551 436.356 463.204 435.925C461.857 435.493 460.437 435.33 459.026 435.443V435.443Z" fill="white"/>
<path d="M390.533 574.442C344.831 574.442 317.361 534.459 307.608 499.294L307.28 498.059C306.76 496.354 306.595 494.563 306.793 492.794C306.992 491.024 307.55 489.312 308.435 487.76C309.32 486.208 310.514 484.848 311.944 483.762C313.374 482.675 315.012 481.884 316.76 481.436C318.507 480.988 320.328 480.892 322.114 481.153C323.9 481.415 325.614 482.03 327.154 482.96C328.693 483.89 330.027 485.117 331.075 486.567C332.123 488.017 332.863 489.66 333.252 491.399L333.498 492.31C340.91 519.073 361.092 549.663 393.469 547.902C399.558 547.694 405.533 546.225 411.009 543.592C416.484 540.959 421.337 537.219 425.251 532.617C443.011 512.534 450.956 468.867 449.191 446.841C449.024 445.427 449.147 443.995 449.554 442.63C449.961 441.264 450.643 439.994 451.559 438.894C452.475 437.795 453.606 436.888 454.885 436.23C456.164 435.571 457.565 435.173 459.004 435.06C460.442 434.947 461.889 435.121 463.258 435.572C464.627 436.023 465.889 436.741 466.97 437.684C468.051 438.627 468.929 439.775 469.549 441.059C470.17 442.344 470.522 443.739 470.584 445.16C472.637 469.677 469.927 522.373 445.475 550.007C439.216 557.273 431.499 563.183 422.81 567.364C414.121 571.545 404.649 573.907 394.989 574.301C393.49 574.402 391.991 574.442 390.533 574.442Z" stroke="#263238" stroke-width="1.1133" stroke-linecap="round" stroke-linejoin="round"/>
<path d="M364.171 547.051C365.259 542.091 353.228 549.845 343.147 557.072C346.876 560.18 350.89 562.938 355.138 565.312C358.731 559.542 363.124 551.829 364.171 547.051Z" fill="#92E3A9" stroke="#263238" stroke-width="1.1133" stroke-linecap="round" stroke-linejoin="round"/>
<path d="M390.533 574.442C391.991 574.442 393.49 574.442 394.988 574.321C399.35 574.08 403.684 573.477 407.944 572.519C402.277 565.231 394.475 555.595 392.237 554.866C389.671 554.015 384.723 566.425 381.972 573.956C384.813 574.283 387.672 574.445 390.533 574.442V574.442Z" fill="#92E3A9" stroke="#263238" stroke-width="1.1133" stroke-linecap="round" stroke-linejoin="round"/>
<path d="M333.498 492.31L333.252 491.399C332.863 489.66 332.123 488.017 331.075 486.567C330.027 485.117 328.693 483.89 327.154 482.96C325.614 482.03 323.9 481.415 322.114 481.153C320.328 480.892 318.507 480.988 316.76 481.436C315.012 481.884 313.374 482.675 311.944 483.762C310.514 484.848 309.32 486.208 308.435 487.76C307.55 489.312 306.992 491.024 306.793 492.794C306.595 494.563 306.76 496.354 307.28 498.059L307.608 499.294C311.032 511.644 316.29 523.426 323.212 534.257L347.665 522.778C341.252 513.472 336.464 503.174 333.498 492.31Z" fill="#92E3A9" stroke="#263238" stroke-width="1.1133" stroke-linecap="round" stroke-linejoin="round"/>
<path d="M445.475 550.007C447.354 547.862 449.095 545.604 450.69 543.245C442.929 540.634 431.308 537.03 426.997 537.415C421.885 537.881 428.824 554.076 432.396 561.708C437.205 558.326 441.595 554.399 445.475 550.007V550.007Z" fill="#92E3A9" stroke="#263238" stroke-width="1.1133" stroke-linecap="round" stroke-linejoin="round"/>
<path d="M445.905 506.744C445.084 508.364 455.124 515.571 461.899 520.207C464.048 513.901 465.776 507.463 467.073 500.934C458.86 502.554 446.706 505.165 445.905 506.744Z" fill="#92E3A9" stroke="#263238" stroke-width="1.1133" stroke-linecap="round" stroke-linejoin="round"/>
<path d="M470.4 476.803C470.851 471.033 471.077 465.526 471.098 460.465C464.035 464.291 455.658 469.595 455.658 473.078C455.658 476.56 463.501 476.985 470.4 476.803Z" fill="#92E3A9" stroke="#263238" stroke-width="1.1133" stroke-linecap="round" stroke-linejoin="round"/>
<path d="M359.86 320.17C359.86 320.17 339.924 377.098 350.662 421.393C353.842 434.355 360.016 446.418 368.702 456.64C377.388 466.862 388.352 474.968 400.737 480.325C400.737 480.325 371.604 490.447 378.153 506.016C384.703 521.584 409.812 511.563 418.004 506.522C426.196 501.481 436.482 486.378 437.919 476.296C438.832 471.145 439.177 465.912 438.946 460.688C438.946 460.688 472.144 457.165 494.626 439.026C494.626 439.026 514.562 454.635 528.872 451.618C543.182 448.602 563.61 423.397 561.557 400.744C559.504 378.09 546.262 378.11 538.172 381.552C533.973 383.117 530.144 385.515 526.921 388.597C526.921 388.597 538.665 374.426 526.921 354.849C523.455 349.107 518.709 344.218 513.043 340.552C507.376 336.887 500.938 334.541 494.215 333.693C494.215 333.693 488.056 301.444 469.701 289.358C451.346 277.272 385.914 264.761 359.86 320.17Z" fill="white"/>
<path d="M511.646 339.747C502.168 355.336 489.053 368.469 473.391 378.054C457.728 387.639 439.971 393.398 421.597 394.852C380.945 398.375 358.156 390.48 347.685 384.993C348.956 362.967 353.096 341.194 360.004 320.211C386.058 264.801 451.449 277.393 469.845 289.479C488.241 301.565 494.359 333.815 494.359 333.815C500.48 334.572 506.371 336.594 511.646 339.747ZM538.173 381.552C533.973 383.117 530.144 385.515 526.921 388.597C529.408 385.217 531.047 381.304 531.705 377.179C504.091 390.743 506.247 419.693 502.818 419.693C498.589 419.693 496.494 405.137 496.494 405.137C496.494 405.137 491.218 425.928 459.538 440.504C427.859 455.08 392.032 443.622 392.032 443.622C392.032 443.622 399.423 460.263 380.432 458.178C375.103 457.675 369.992 455.835 365.588 452.833C374.695 464.805 386.79 474.249 400.696 480.244C400.696 480.244 371.563 490.366 378.112 505.935C384.662 521.503 409.792 511.482 417.963 506.441C426.134 501.4 436.441 486.297 437.878 476.216C438.792 471.065 439.136 465.831 438.905 460.607C438.905 460.607 472.103 457.084 494.585 438.945C494.585 438.945 514.521 454.554 528.831 451.537C543.141 448.521 563.569 423.316 561.516 400.663C559.463 378.009 546.262 378.11 538.173 381.552Z" fill="#92E3A9"/>
<path opacity="0.5" d="M511.646 339.747C502.168 355.336 489.053 368.469 473.391 378.054C457.728 387.639 439.971 393.398 421.597 394.852C380.945 398.375 358.156 390.48 347.685 384.993C348.956 362.967 353.096 341.194 360.004 320.211C386.058 264.801 451.449 277.393 469.845 289.479C488.241 301.565 494.359 333.815 494.359 333.815C500.48 334.572 506.371 336.594 511.646 339.747ZM538.173 381.552C533.973 383.117 530.144 385.515 526.921 388.597C529.408 385.217 531.047 381.304 531.705 377.179C504.091 390.743 506.247 419.693 502.818 419.693C498.589 419.693 496.494 405.137 496.494 405.137C496.494 405.137 491.218 425.928 459.538 440.504C427.859 455.08 392.032 443.622 392.032 443.622C392.032 443.622 399.423 460.263 380.432 458.178C375.103 457.675 369.992 455.835 365.588 452.833C374.695 464.805 386.79 474.249 400.696 480.244C400.696 480.244 371.563 490.366 378.112 505.935C384.662 521.503 409.792 511.482 417.963 506.441C426.134 501.4 436.441 486.297 437.878 476.216C438.792 471.065 439.136 465.831 438.905 460.607C438.905 460.607 472.103 457.084 494.585 438.945C494.585 438.945 514.521 454.554 528.831 451.537C543.141 448.521 563.569 423.316 561.516 400.663C559.463 378.009 546.262 378.11 538.173 381.552Z" fill="white"/>
<path d="M439.048 460.728C428.03 461.017 417.091 458.812 407.072 454.281C397.052 449.75 388.22 443.015 381.253 434.593" stroke="#263238" stroke-width="1.1133" stroke-linecap="round" stroke-linejoin="round"/>
<path d="M359.86 320.17C359.86 320.17 339.924 377.098 350.662 421.393C353.842 434.355 360.016 446.418 368.702 456.64C377.388 466.862 388.352 474.968 400.737 480.325C400.737 480.325 371.604 490.447 378.153 506.016C384.703 521.584 409.812 511.563 418.004 506.522C426.196 501.481 436.482 486.378 437.919 476.296C438.832 471.145 439.177 465.912 438.946 460.688C438.946 460.688 472.144 457.165 494.626 439.026C494.626 439.026 514.562 454.635 528.872 451.618C543.182 448.602 563.61 423.397 561.557 400.744C559.504 378.09 546.262 378.11 538.172 381.552C533.973 383.117 530.144 385.515 526.921 388.597C526.921 388.597 538.665 374.426 526.921 354.849C523.455 349.107 518.709 344.218 513.043 340.552C507.376 336.887 500.938 334.541 494.215 333.693C494.215 333.693 488.056 301.444 469.701 289.358C451.346 277.272 385.914 264.761 359.86 320.17Z" stroke="#263238" stroke-width="1.1133" stroke-linecap="round" stroke-linejoin="round"/>
<path d="M526.921 388.678C526.921 388.678 516.204 395.743 511.092 417.405" stroke="#263238" stroke-width="1.1133" stroke-linecap="round" stroke-linejoin="round"/>
<path d="M546.611 397.95C545.359 401.634 541.93 403.841 538.974 402.849C536.017 401.857 534.662 398.071 535.914 394.387C537.167 390.702 540.595 388.496 543.552 389.488C546.508 390.48 547.884 394.265 546.611 397.95Z" fill="white" stroke="#263238" stroke-width="1.1133" stroke-linecap="round" stroke-linejoin="round"/>
<path d="M557.184 404.509C555.931 408.194 552.503 410.4 549.546 409.408C546.59 408.416 545.214 404.631 546.487 400.946C547.76 397.262 551.168 395.055 554.125 396.047C557.081 397.039 558.457 400.825 557.184 404.509Z" fill="white" stroke="#263238" stroke-width="1.1133" stroke-linecap="round" stroke-linejoin="round"/>
<path d="M559.442 414.328C559.033 415.005 558.436 415.554 557.722 415.911C557.009 416.268 556.207 416.418 555.41 416.343C554.614 416.269 553.855 415.973 553.222 415.49C552.589 415.007 552.108 414.357 551.835 413.616C551.562 412.874 551.507 412.071 551.678 411.3C551.849 410.53 552.238 409.822 552.801 409.261C553.363 408.7 554.075 408.307 554.855 408.129C555.634 407.951 556.449 407.994 557.204 408.254C558.295 408.792 559.135 409.721 559.551 410.851C559.967 411.981 559.928 413.225 559.442 414.328V414.328Z" fill="white" stroke="#263238" stroke-width="1.1133" stroke-linecap="round" stroke-linejoin="round"/>
<path d="M545.954 427.811C542.258 434.39 534.867 437.305 529.426 434.329C523.986 431.353 522.589 423.64 526.285 417.061C529.981 410.481 537.372 407.566 542.813 410.542C548.253 413.518 549.649 421.231 545.954 427.811Z" fill="white" stroke="#263238" stroke-width="1.1133" stroke-linecap="round" stroke-linejoin="round"/>
<path d="M400.737 480.366C407.62 483.524 415.443 484.065 422.706 481.884" stroke="#263238" stroke-width="1.1133" stroke-linecap="round" stroke-linejoin="round"/>
<path d="M378.256 506.056C378.256 506.056 380.309 497.493 393.059 491.46" stroke="#263238" stroke-width="1.1133" stroke-linecap="round" stroke-linejoin="round"/>
<path d="M391.026 513.627C391.026 513.627 396.139 501.481 404.823 495.994" stroke="#263238" stroke-width="1.1133" stroke-linecap="round" stroke-linejoin="round"/>
<path d="M189.555 374.264C187.383 372.555 185.651 370.364 184.503 367.869C183.354 365.374 182.819 362.647 182.943 359.91V311.91H57.3754C54.3081 312.024 51.2522 311.482 48.4172 310.322C45.5822 309.161 43.0351 307.411 40.9505 305.189C36.8434 300.905 34.59 295.212 34.668 289.317C34.6513 284.527 36.0808 279.841 38.7742 275.855L159.045 89.4828C168.079 75.73 180.083 68.8536 195.057 68.8536C203.107 68.5839 210.968 71.2999 217.087 76.4655C222.959 81.5267 225.895 89.0509 225.895 99.0382V280.207H257.841C260.047 280.076 262.256 280.425 264.311 281.23C266.365 282.035 268.215 283.275 269.728 284.863C272.43 287.985 273.914 291.955 273.914 296.059C273.914 300.163 272.43 304.132 269.728 307.254C268.215 308.842 266.365 310.083 264.311 310.887C262.256 311.692 260.047 312.041 257.841 311.91H225.669V359.91C225.802 362.627 225.295 365.336 224.187 367.827C223.079 370.317 221.401 372.521 219.284 374.264C215.151 377.68 209.914 379.526 204.522 379.466C199.07 379.509 193.774 377.668 189.555 374.264ZM182.861 280.207V113.392L77.5574 280.207H182.861Z" fill="#263238"/>
<path d="M363.802 375.235C351.495 369.939 340.596 361.909 331.958 351.772C323.282 341.062 316.507 328.98 311.92 316.04C306.721 302.061 303.066 287.57 301.018 272.818C298.881 256.757 297.852 240.571 297.938 224.373C297.938 117.657 334.894 64.2985 408.806 64.2985C482.718 64.2985 519.585 117.657 519.407 224.373C519.48 240.494 518.486 256.602 516.43 272.595C514.449 287.35 510.827 301.844 505.631 315.817C501.044 328.758 494.269 340.839 485.592 351.549C476.943 361.7 466.05 369.761 453.749 375.114C439.606 381.279 424.266 384.32 408.806 384.022C393.338 384.328 377.985 381.33 363.802 375.235V375.235ZM430.651 344.605C436.835 342.004 442.448 338.243 447.179 333.531C451.968 328.503 455.906 322.748 458.84 316.486C462.078 309.851 464.697 302.939 466.663 295.836C468.733 288.097 470.242 280.222 471.179 272.271C472.288 263.499 473.027 255.462 473.397 248.16C473.766 240.858 473.944 232.929 473.931 224.373C473.931 215.397 473.753 207.111 473.397 199.512C473.041 191.914 472.268 183.762 471.077 175.057C470.055 167.112 468.511 159.24 466.457 151.492C464.514 144.46 461.895 137.627 458.635 131.085C455.678 124.922 451.733 119.269 446.953 114.343C442.251 109.726 436.669 106.073 430.528 103.593C416.49 98.2492 400.937 98.2492 386.899 103.593C380.804 106.043 375.262 109.663 370.598 114.242C365.852 119.147 361.917 124.755 358.936 130.863C355.647 137.345 353.06 144.151 351.216 151.168C349.212 158.963 347.703 166.874 346.699 174.854C345.509 183.681 344.735 191.9 344.379 199.512C344.024 207.124 343.839 215.411 343.825 224.373C343.825 232.916 344.01 240.879 344.379 248.261C344.749 255.644 345.481 263.742 346.576 272.555C347.523 280.504 349.033 288.378 351.093 296.119C353.031 303.22 355.622 310.132 358.833 316.769C361.738 322.993 365.641 328.715 370.392 333.714C375.087 338.395 380.667 342.123 386.817 344.686C400.869 350.327 416.6 350.327 430.651 344.686V344.605Z" fill="#263238"/>
<path d="M709.648 374.264C707.476 372.555 705.745 370.364 704.596 367.869C703.447 365.374 702.913 362.647 703.037 359.91V311.91H577.469C574.401 312.024 571.345 311.482 568.51 310.322C565.675 309.161 563.128 307.411 561.044 305.189C556.937 300.905 554.683 295.212 554.761 289.317C554.745 284.527 556.174 279.841 558.867 275.855L679.139 89.4828C688.09 75.73 700.06 68.8536 715.047 68.8536C723.14 68.5531 731.05 71.2711 737.2 76.4655C743.072 81.5267 746.008 89.0509 746.008 99.0382V280.207H777.955C780.161 280.076 782.37 280.425 784.424 281.23C786.479 282.035 788.328 283.275 789.842 284.863C792.544 287.985 794.028 291.955 794.028 296.059C794.028 300.163 792.544 304.132 789.842 307.254C788.328 308.842 786.479 310.083 784.424 310.887C782.37 311.692 780.161 312.041 777.955 311.91H745.762V359.91C745.895 362.627 745.388 365.336 744.28 367.827C743.172 370.317 741.494 372.521 739.377 374.264C735.244 377.68 730.008 379.526 724.615 379.467C719.163 379.509 713.867 377.668 709.648 374.264V374.264ZM703.037 280.207V113.392L597.733 280.207H703.037Z" fill="#263238"/>
<path d="M318.469 291.463C318.469 291.463 297.014 321.182 293.955 351.408C290.896 381.633 294.468 401.776 303.666 409.348C312.864 416.919 322.041 413.882 327.154 406.817C332.266 399.752 324.094 375.073 324.094 375.073C324.094 375.073 332.779 351.407 346.063 334.787C359.346 318.166 361.892 315.635 361.892 315.635C361.892 315.635 338.897 289.945 318.469 291.463Z" fill="white"/>
<path d="M318.47 291.463C313.788 298.284 309.636 305.444 306.048 312.882C316.314 316.931 332.225 325.231 342.327 339.929C343.559 338.168 344.832 336.426 346.146 334.787C359.429 318.166 361.975 315.635 361.975 315.635C361.975 315.635 338.898 289.945 318.47 291.463Z" fill="#92E3A9"/>
<path opacity="0.5" d="M318.47 291.463C313.788 298.284 309.636 305.444 306.048 312.882C316.314 316.931 332.225 325.231 342.327 339.929C343.559 338.168 344.832 336.426 346.146 334.787C359.429 318.166 361.975 315.635 361.975 315.635C361.975 315.635 338.898 289.945 318.47 291.463Z" fill="white"/>
<path d="M318.469 291.463C318.469 291.463 297.014 321.182 293.955 351.408C290.896 381.633 294.468 401.776 303.666 409.348C312.864 416.919 322.041 413.882 327.154 406.817C332.266 399.752 324.094 375.073 324.094 375.073C324.094 375.073 332.779 351.407 346.063 334.787C359.346 318.166 361.892 315.635 361.892 315.635C361.892 315.635 338.897 289.945 318.469 291.463Z" stroke="#263238" stroke-width="1.1133" stroke-linecap="round" stroke-linejoin="round"/>
<path d="M303.666 409.348C301.158 402.743 299.939 395.73 300.074 388.678" stroke="#263238" stroke-width="1.1133" stroke-linecap="round" stroke-linejoin="round"/>
<path d="M317.442 412.364C317.442 412.364 312.351 403.801 311.837 389.184" stroke="#263238" stroke-width="1.1133" stroke-linecap="round" stroke-linejoin="round"/>
<path d="M325.121 345.354C325.121 340.05 314.856 329.685 300.586 325.11C298.668 330.042 297.084 335.094 295.844 340.232C301.388 341.168 306.771 342.865 311.837 345.273C319.496 349.383 325.121 351.407 325.121 345.354Z" fill="#92E3A9" stroke="#263238" stroke-width="1.1133" stroke-linecap="round" stroke-linejoin="round"/>
<path d="M317.216 293.265C313.907 298.24 310.864 303.382 308.101 308.671C312.421 309.798 316.566 311.5 320.419 313.732C336.249 322.782 339.308 323.855 334.216 310.696C331.136 302.436 323.786 296.828 317.216 293.265Z" fill="#92E3A9" stroke="#263238" stroke-width="1.1133" stroke-linecap="round" stroke-linejoin="round"/>
<path d="M486.516 276.786C486.516 276.786 510.825 304.278 516.881 334.078C522.938 363.878 521.398 384.264 512.98 392.666C504.563 401.068 495.139 398.962 489.349 392.423C483.559 385.884 489.349 360.558 489.349 360.558C489.349 360.558 478.344 337.823 463.48 322.559C448.615 307.295 445.803 305.047 445.803 305.047C445.803 305.047 466.026 277.252 486.516 276.786Z" fill="white"/>
<path d="M486.516 276.786C465.985 277.252 445.7 305.128 445.7 305.128C445.7 305.128 448.492 307.396 463.377 322.64C466.161 325.531 468.78 328.572 471.22 331.75C478.989 318.81 490.088 308.125 503.393 300.776C498.497 292.303 492.849 284.275 486.516 276.786V276.786Z" fill="#92E3A9"/>
<path opacity="0.5" d="M486.516 276.786C465.985 277.252 445.7 305.128 445.7 305.128C445.7 305.128 448.492 307.396 463.377 322.64C466.161 325.531 468.78 328.572 471.22 331.75C478.989 318.81 490.088 308.125 503.393 300.776C498.497 292.303 492.849 284.275 486.516 276.786V276.786Z" fill="white"/>
<path d="M486.516 276.786C486.516 276.786 510.825 304.278 516.881 334.078C522.938 363.878 521.398 384.264 512.98 392.666C504.563 401.068 495.139 398.962 489.349 392.423C483.559 385.884 489.349 360.558 489.349 360.558C489.349 360.558 478.344 337.823 463.48 322.559C448.615 307.295 445.803 305.047 445.803 305.047C445.803 305.047 466.026 277.252 486.516 276.786Z" stroke="#263238" stroke-width="1.1133" stroke-linecap="round" stroke-linejoin="round"/>
<path d="M512.98 392.666C514.821 385.859 515.336 378.77 514.5 371.774" stroke="#263238" stroke-width="1.1133" stroke-linecap="round" stroke-linejoin="round"/>
<path d="M499.553 396.998C499.553 396.998 503.803 387.989 502.859 373.393" stroke="#263238" stroke-width="1.1133" stroke-linecap="round" stroke-linejoin="round"/>
<path d="M485.264 331.062C484.751 325.778 493.928 314.481 507.684 308.631C510.063 313.349 512.121 318.219 513.843 323.207C508.43 324.695 503.249 326.909 498.445 329.786C491.259 334.544 485.88 337.014 485.264 331.062Z" fill="#92E3A9" stroke="#263238" stroke-width="1.1133" stroke-linecap="round" stroke-linejoin="round"/>
<path d="M487.933 278.466C491.709 283.06 495.232 287.852 498.486 292.82C494.283 294.354 490.312 296.445 486.681 299.035C471.837 309.602 468.88 310.898 472.658 297.375C475.019 288.933 481.753 282.637 487.933 278.466Z" fill="#92E3A9" stroke="#263238" stroke-width="1.1133" stroke-linecap="round" stroke-linejoin="round"/>
<path d="M316.457 265.753C316.457 265.753 310.133 286.787 312.515 295.35C314.896 303.914 325.942 296.14 337.008 305.472C348.075 314.805 358.32 331.649 400.224 334.766C442.128 337.884 467.422 315.595 476.189 303.124C484.955 290.653 484.093 275.855 499.101 275.085C514.11 274.316 501.483 245.467 496.74 240.791C496.74 240.791 525.977 197.933 525.977 187.021C525.977 176.109 498.321 178.438 464.383 188.58C464.383 188.58 439.089 175.32 393.243 183.114C347.397 190.908 333.97 204.169 333.97 204.169C333.97 204.169 277.058 211.173 273.116 218.178C269.174 225.182 280.897 254.841 316.457 265.753Z" fill="white"/>
<path d="M499.04 275.106C514.069 274.316 501.422 245.488 496.679 240.811C496.679 240.811 502.243 232.713 508.505 222.591C491.526 213.845 474.855 208.987 470.42 213.906C460.873 224.474 466.067 244.718 470.42 264.518C474.773 284.317 457.383 292.759 445.228 309.886C433.074 327.013 415.725 308.165 415.725 308.165C409.566 333.005 383.594 316.729 383.594 316.729C363.638 310.655 329.782 291.058 336.722 277.353C343.661 263.647 345.406 250.812 333.252 239.698C321.097 228.584 272.624 219.332 272.624 219.332C270.078 227.774 282.376 255.428 316.478 265.894C316.478 265.894 310.154 286.928 312.536 295.492C314.918 304.055 325.963 296.281 337.03 305.614C348.096 314.947 358.341 331.791 400.245 334.908C442.149 338.026 467.443 315.737 476.21 303.266C484.977 290.795 484.012 275.875 499.04 275.106Z" fill="#92E3A9"/>
<path opacity="0.5" d="M499.04 275.106C514.069 274.316 501.422 245.488 496.679 240.811C496.679 240.811 502.243 232.713 508.505 222.591C491.526 213.845 474.855 208.987 470.42 213.906C460.873 224.474 466.067 244.718 470.42 264.518C474.773 284.317 457.383 292.759 445.228 309.886C433.074 327.013 415.725 308.165 415.725 308.165C409.566 333.005 383.594 316.729 383.594 316.729C363.638 310.655 329.782 291.058 336.722 277.353C343.661 263.647 345.406 250.812 333.252 239.698C321.097 228.584 272.624 219.332 272.624 219.332C270.078 227.774 282.376 255.428 316.478 265.894C316.478 265.894 310.154 286.928 312.536 295.492C314.918 304.055 325.963 296.281 337.03 305.614C348.096 314.947 358.341 331.791 400.245 334.908C442.149 338.026 467.443 315.737 476.21 303.266C484.977 290.795 484.012 275.875 499.04 275.106Z" fill="white"/>
<path d="M437.221 279.802C437.817 284.742 426.689 290.066 412.42 291.706C398.15 293.346 386.078 290.674 385.483 285.633C384.887 280.592 396.015 275.389 410.305 273.749C424.595 272.109 436.646 274.883 437.221 279.802Z" fill="#92E3A9"/>
<path opacity="0.5" d="M437.221 279.802C437.817 284.742 426.689 290.066 412.42 291.706C398.15 293.346 386.078 290.674 385.483 285.633C384.887 280.592 396.015 275.389 410.305 273.749C424.595 272.109 436.646 274.883 437.221 279.802Z" fill="white"/>
<path d="M316.457 265.753C316.457 265.753 310.133 286.787 312.515 295.35C314.896 303.914 325.942 296.14 337.008 305.472C348.075 314.805 358.32 331.649 400.224 334.766C442.128 337.884 467.422 315.595 476.189 303.124C484.955 290.653 484.093 275.855 499.101 275.085C514.11 274.316 501.483 245.467 496.74 240.791C496.74 240.791 525.977 197.933 525.977 187.021C525.977 176.109 498.321 178.438 464.383 188.58C464.383 188.58 439.089 175.32 393.243 183.114C347.397 190.908 333.97 204.169 333.97 204.169C333.97 204.169 277.058 211.173 273.116 218.178C269.174 225.182 280.897 254.841 316.457 265.753Z" stroke="#263238" stroke-width="1.1133" stroke-miterlimit="10"/>
<path d="M479.926 203.399C459.395 217.004 466.642 230.608 475.819 238.159C481.424 242.775 490.458 242.208 496.638 240.912C496.638 240.912 525.874 198.055 525.874 187.143C525.895 187.042 500.354 189.694 479.926 203.399Z" fill="#92E3A9" stroke="#263238" stroke-width="1.1133" stroke-miterlimit="10"/>
<path d="M272.603 219.19C270.057 227.632 282.355 255.286 316.457 265.753C316.457 265.753 342.491 263.242 333.806 242.593C325.696 223.32 284.696 218.522 272.603 219.19Z" fill="#92E3A9" stroke="#263238" stroke-width="1.1133" stroke-miterlimit="10"/>
<path d="M393.12 183.155C390.431 183.62 387.844 184.106 385.359 184.592C389.466 205.039 396.22 239.09 402.256 239.09C408.293 239.09 412.912 201.759 414.883 180.847C407.586 181.15 400.316 181.921 393.12 183.155V183.155Z" fill="#92E3A9" stroke="#263238" stroke-width="1.1133" stroke-miterlimit="10"/>
<path d="M369.571 233.017C375.853 229.373 374.909 201.982 373.903 187.123C367.419 188.711 361.036 190.678 354.789 193.014C357.068 206.922 362.857 236.904 369.571 233.017Z" fill="#92E3A9" stroke="#263238" stroke-width="1.1133" stroke-miterlimit="10"/>
<path d="M430.364 220.425C436.79 222.652 440.403 199.877 442.436 182.345C435.946 181.302 429.384 180.753 422.808 180.705C422.603 195.099 423.404 218.016 430.364 220.425Z" fill="#92E3A9" stroke="#263238" stroke-width="1.1133" stroke-miterlimit="10"/>
<path d="M421.761 299.257C415.765 297.703 409.393 298.479 403.96 301.424C403.722 301.559 403.519 301.748 403.368 301.975C403.217 302.201 403.122 302.46 403.09 302.729C403.058 302.998 403.091 303.271 403.185 303.526C403.279 303.781 403.432 304.011 403.632 304.197L414.534 314.319C414.738 314.508 414.985 314.646 415.255 314.722C415.524 314.798 415.807 314.81 416.082 314.757C416.357 314.703 416.615 314.586 416.835 314.415C417.055 314.244 417.23 314.024 417.347 313.773L422.931 301.626C423.031 301.396 423.079 301.148 423.073 300.898C423.067 300.648 423.006 300.402 422.895 300.178C422.784 299.953 422.626 299.754 422.43 299.596C422.234 299.437 422.006 299.322 421.761 299.257V299.257Z" fill="#92E3A9" stroke="#263238" stroke-width="1.1133" stroke-linecap="round" stroke-linejoin="round"/>
<path d="M395.851 282.353C397.35 286.26 396.754 290.107 394.517 290.937C392.279 291.767 389.24 289.297 387.721 285.41C386.201 281.523 386.817 277.656 389.055 276.826C391.293 275.996 394.332 278.466 395.851 282.353Z" fill="#263238"/>
<path d="M425.58 279.58C424.799 283.629 426.072 287.374 428.433 287.799C430.794 288.224 433.34 285.268 434.12 281.159C434.901 277.049 433.628 273.385 431.267 272.939C428.906 272.494 426.36 275.49 425.58 279.58Z" fill="#263238"/>
<path d="M417.347 313.753C417.347 313.753 402.769 333.268 389.486 313.631" stroke="#263238" stroke-width="1.1133" stroke-linecap="round" stroke-linejoin="round"/>
<path d="M414.535 314.299C414.535 314.299 424.225 324.199 434.45 318.652C444.674 313.105 438.556 304.48 438.556 304.48" stroke="#263238" stroke-width="1.1133" stroke-linecap="round" stroke-linejoin="round"/>
<path d="M370.084 266.765C370.084 266.765 373.656 254.173 390.512 257.189" stroke="#263238" stroke-width="3.33991" stroke-linecap="round" stroke-linejoin="round"/>
<path d="M421.166 255.185C421.166 255.185 433.936 247.634 445.68 259.72" stroke="#263238" stroke-width="3.33991" stroke-linecap="round" stroke-linejoin="round"/>
<path d="M360.373 300.533L372.63 303.549" stroke="#263238" stroke-width="1.1133" stroke-miterlimit="10" stroke-linecap="round"/>
<path d="M371.09 308.084L360.373 310.088" stroke="#263238" stroke-width="1.1133" stroke-miterlimit="10" stroke-linecap="round"/>
<path d="M373.143 313.631L365.485 317.66" stroke="#263238" stroke-width="1.1133" stroke-miterlimit="10" stroke-linecap="round"/>
<path d="M450.792 294.986L461.53 292.455" stroke="#263238" stroke-width="1.1133" stroke-miterlimit="10" stroke-linecap="round"/>
<path d="M452.845 300.027H459.99" stroke="#263238" stroke-width="1.1133" stroke-miterlimit="10" stroke-linecap="round"/>
<path d="M454.364 305.068L464.075 307.578" stroke="#263238" stroke-width="1.1133" stroke-miterlimit="10" stroke-linecap="round"/>
</svg>
